# xmcd
#
# Track frame offsets:
#	150
#	15413
#	31909
#	48143
#	64206
#	83091
#	102932
#	119038
#	132240
#	148818
#	162996
#
# Disc length: 2482 seconds
#
# Revision: 1
# Processed by: cddbd v1.5.2PL0 Copyright (c) Steve Scherf et al.
# Submitted via: audiograbber 1.83.01
#
DISCID=9109b00b
DTITLE=Jesse Ritch - Groove
DYEAR=2014
DGENRE=Pop
TTITLE0=Gimme One More Night
TTITLE1=Get The Groove
TTITLE2=For Once In My Life (Duett With DJ BOBO)
TTITLE3=Let Me Love You
TTITLE4=Something I Feel
TTITLE5=One Of Those
TTITLE6=Back To The Future
TTITLE7=Go On Walking
TTITLE8=Back With Me
TTITLE9=Brand New Start
TTITLE10=Forever and A Day
EXTD=
EXTT0=
EXTT1=
EXTT2=
EXTT3=
EXTT4=
EXTT5=
EXTT6=
EXTT7=
EXTT8=
EXTT9=
EXTT10=
PLAYORDER=
